<svg xmlns="http://www.w3.org/2000/svg" width="24.588" height="21.999" viewBox="0 0 24.588 21.999">
  <path id="add-user" d="M10.765,16.941a6.471,6.471,0,1,0-4.576-1.9,6.451,6.451,0,0,0,4.576,1.9Zm0,9.059c4.553,0,7.765-1.294,7.765-2.588,0-2.588-3.046-5.176-7.765-5.176C5.912,18.235,3,20.823,3,23.411,3,24.705,5.912,26,10.765,26ZM26.294,14.353H23.705V11.765a1.294,1.294,0,1,0-2.588,0v2.588H18.529a1.294,1.294,0,1,0,0,2.588h2.588v2.588a1.294,1.294,0,0,0,2.588,0V16.941h2.588a1.294,1.294,0,1,0,0-2.588Z" transform="translate(-3 -4)" fill="#a61e21"/>
</svg>
