<svg xmlns="http://www.w3.org/2000/svg" xmlns:xlink="http://www.w3.org/1999/xlink" width="18" height="18" viewBox="0 0 18 18">
  <defs>
    <clipPath id="clip-path">
      <rect id="Rectangle_1720" data-name="Rectangle 1720" width="18" height="18" fill="#b2b2b2"/>
    </clipPath>
  </defs>
  <g id="show" clip-path="url(#clip-path)">
    <g id="show-2" data-name="show" transform="translate(-3 -3)">
      <path id="Path_2172" data-name="Path 2172" d="M12,7a8.674,8.674,0,0,0-8.039,5.194.5.5,0,0,1-.921-.388A9.674,9.674,0,0,1,12,6a9.674,9.674,0,0,1,8.961,5.806.5.5,0,0,1-.921.388A8.675,8.675,0,0,0,12,7Z" fill="#b2b2b2" fill-rule="evenodd"/>
      <path id="Path_2173" data-name="Path 2173" d="M12,17a8.674,8.674,0,0,1-8.039-5.194.5.5,0,1,0-.921.388A9.674,9.674,0,0,0,12,18a9.674,9.674,0,0,0,8.961-5.806.5.5,0,0,0-.921-.388A8.675,8.675,0,0,1,12,17Z" fill="#b2b2b2" fill-rule="evenodd"/>
      <path id="Path_2174" data-name="Path 2174" d="M12,9.5A2.5,2.5,0,1,0,14.5,12,2.5,2.5,0,0,0,12,9.5ZM8.5,12A3.5,3.5,0,1,1,12,15.5,3.5,3.5,0,0,1,8.5,12Z" fill="#b2b2b2" fill-rule="evenodd"/>
    </g>
  </g>
</svg>
