<svg xmlns="http://www.w3.org/2000/svg" xmlns:xlink="http://www.w3.org/1999/xlink" width="14" height="14" viewBox="0 0 14 14">
  <defs>
    <clipPath id="clip-path">
      <rect id="Rectangle_1566" data-name="Rectangle 1566" width="14" height="14" transform="translate(0.042)" fill="#cfcfcf"/>
    </clipPath>
  </defs>
  <g id="mobile" transform="translate(-0.042)" clip-path="url(#clip-path)">
    <path id="call" d="M13.748,12.129a3.3,3.3,0,0,1-3.335,1.859A10.635,10.635,0,0,1,5.6,12,15.856,15.856,0,0,1,.62,6.056,4.985,4.985,0,0,1,.823.888,1.979,1.979,0,0,1,2.4,0C3.36-.044,3.494.5,3.824,1.36,4.069,2,4.4,2.652,4.58,3.314c.343,1.237-.855,1.288-1.006,2.3C3.48,6.25,4.252,7.105,4.6,7.56A9.431,9.431,0,0,0,7.035,9.8c.532.335,1.389.939,2,.606.937-.513.849-2.093,2.159-1.559a21.083,21.083,0,0,1,1.983,1.024c1,.539.955,1.1.573,2.256h0" transform="translate(0.001 0)" fill="#cfcfcf" fill-rule="evenodd"/>
  </g>
</svg>
