<?xml version="1.0" standalone="no"?>
<!DOCTYPE svg PUBLIC "-//W3C//DTD SVG 20010904//EN"
 "http://www.w3.org/TR/2001/REC-SVG-20010904/DTD/svg10.dtd">
<svg version="1.0" xmlns="http://www.w3.org/2000/svg"
 width="360.000000pt" height="360.000000pt" viewBox="0 0 360.000000 360.000000"
 preserveAspectRatio="xMidYMid meet">

<g transform="translate(0.000000,360.000000) scale(0.100000,-0.100000)"
fill="#000000" stroke="none">
<path d="M2520 2847 c-173 -172 -418 -415 -545 -540 l-230 -226 -5 377 c-5
342 -7 381 -23 405 -52 80 -151 88 -236 21 -89 -71 -586 -487 -597 -501 -8
-10 -49 -13 -163 -13 -167 0 -206 -10 -250 -66 -39 -50 -42 -85 -39 -425 l3
-326 28 -41 c47 -66 78 -76 257 -80 l154 -4 58 -46 c31 -26 57 -50 57 -53 1
-3 -120 -125 -267 -270 -285 -280 -294 -291 -268 -354 17 -40 37 -55 81 -62
27 -4 43 -1 64 15 15 11 144 134 285 274 142 139 262 255 267 256 5 2 85 -60
178 -137 93 -78 185 -148 205 -156 76 -32 153 -5 188 65 16 32 18 74 18 430
l0 395 140 140 c137 136 140 139 140 107 0 -18 7 -47 16 -64 23 -44 14 -121
-17 -154 -31 -33 -71 -54 -104 -54 -34 0 -82 -25 -95 -49 -20 -39 -12 -91 19
-122 26 -26 36 -29 90 -29 188 0 347 183 327 374 -9 86 -49 164 -93 182 -19 8
-43 12 -54 9 -10 -4 -19 -3 -19 1 0 4 43 50 95 101 l95 93 0 -39 c0 -28 9 -50
34 -82 47 -62 74 -118 91 -191 58 -246 -79 -490 -320 -570 -52 -17 -72 -29
-86 -52 -24 -40 -24 -73 1 -113 34 -56 102 -56 224 1 319 149 472 498 367 836
-24 77 -82 179 -132 232 -30 32 -43 38 -76 38 l-40 0 319 318 318 317 0 43 c0
61 -41 102 -101 102 l-43 0 -316 -313z m-980 -580 l0 -392 -199 -199 c-183
-183 -201 -198 -218 -185 -10 7 -54 43 -97 79 l-80 65 -153 3 -153 3 0 265 0
264 108 -6 c171 -11 182 -7 304 94 269 224 458 384 463 393 21 34 25 -22 25
-384z m0 -907 c0 -115 -2 -210 -5 -210 -3 0 -58 43 -121 97 l-115 96 113 114
c62 62 116 113 120 113 5 0 8 -94 8 -210z"/>
<path d="M2598 2614 c-65 -35 -66 -99 -2 -180 129 -166 185 -331 185 -541 -1
-358 -219 -665 -563 -793 -67 -25 -88 -49 -88 -101 0 -44 36 -93 75 -103 32
-8 130 24 225 76 367 196 580 573 557 986 -10 178 -70 369 -158 499 -114 170
-156 198 -231 157z"/>
</g>
</svg>
