<svg xmlns="http://www.w3.org/2000/svg" xmlns:xlink="http://www.w3.org/1999/xlink" width="22.081" height="22.081" viewBox="0 0 22.081 22.081">
  <defs>
    <clipPath id="clip-path">
      <rect id="Rectangle_1880" data-name="Rectangle 1880" width="22.081" height="22.081" transform="translate(0 0)" fill="#fff"/>
    </clipPath>
  </defs>
  <g id="reports" clip-path="url(#clip-path)">
    <g id="Layer_2" data-name="Layer 2" transform="translate(2.775 0)">
      <g id="Layer_1" data-name="Layer 1">
        <path id="Path_2711" data-name="Path 2711" d="M14.119,21.953H2.411a.373.373,0,0,0-.076-.035A2.749,2.749,0,0,1,0,19.119V3.616A2.749,2.749,0,0,1,2.818.792c2.231-.005,4.462,0,6.693,0,.434,0,.6.165.6.6v2.7a1.829,1.829,0,0,0,1.949,1.955h3.917c.382,0,.558.173.558.549V19.206a2.745,2.745,0,0,1-2.122,2.672C14.31,21.9,14.215,21.928,14.119,21.953Zm-5.843-9.2H4.04c-.275,0-.366.087-.369.355q-.005.56,0,1.12c0,.263.091.356.345.356h8.493c.256,0,.345-.093.348-.355,0-.345,0-.69,0-1.035,0-.375-.066-.443-.434-.443Zm-.934-1.844h3.313c.27,0,.363-.093.365-.36q0-.56,0-1.121c0-.266-.094-.361-.366-.362h-6.6c-.288,0-.376.093-.378.374,0,.359,0,.718,0,1.078,0,.307.089.391.4.392Zm-.928,5.52H4.025c-.247,0-.35.093-.353.329q-.009.593,0,1.186c0,.227.1.326.338.326q2.42,0,4.842,0c.23,0,.324-.1.327-.332,0-.381,0-.762,0-1.143,0-.288-.085-.366-.377-.366Z" transform="translate(0 0.128)" fill="#fff"/>
        <path id="Path_2712" data-name="Path 2712" d="M10.861,0c.115.1.236.185.341.288q1.7,1.695,3.393,3.393c.041.041.082.081.121.122a.446.446,0,0,1,.12.492.43.43,0,0,1-.43.306c-.88,0-1.763.014-2.642-.033A1.488,1.488,0,0,1,10.313,3.15c-.058-.9-.034-1.807-.039-2.711A.5.5,0,0,1,10.6,0Z" transform="translate(1.666)" fill="#fff"/>
      </g>
    </g>
  </g>
</svg>
