<svg xmlns="http://www.w3.org/2000/svg" width="18.32" height="18.322" viewBox="0 0 18.32 18.322">
  <g id="Sielnt" transform="translate(0)">
    <path id="Path_2189" data-name="Path 2189" d="M18.4,42.922a5.734,5.734,0,0,1-.495-.395q-1.05-1.037-2.084-2.091A.417.417,0,0,0,15.5,40.3q-6.584,0-13.167,0a.674.674,0,0,1-.756-.535.651.651,0,0,1,.207-.615c.546-.558,1.093-1.116,1.632-1.682a.42.42,0,0,0,.105-.262q.011-1.637,0-3.274a6.5,6.5,0,0,1,1.448-4.223c.014-.018.026-.038.046-.066-.045-.048-.088-.1-.134-.142q-1.866-1.866-3.731-3.732a.66.66,0,0,1-.022-1.007.648.648,0,0,1,.9.037c.329.32.651.648.976.972Q10.974,33.739,18.935,41.7a3.248,3.248,0,0,1,.292.394v.322a.873.873,0,0,1-.5.5Z" transform="translate(-0.908 -24.6)" fill="#fff"/>
    <path id="Path_2190" data-name="Path 2190" d="M148.056,381.846a9.268,9.268,0,0,1-.923-.313,2.1,2.1,0,0,1-.838-.747,1.3,1.3,0,0,1-.069-.114c0-.008,0-.021,0-.042h4.142a1.744,1.744,0,0,1-.088.155,2.418,2.418,0,0,1-1.65,1.029.92.92,0,0,0-.109.031Z" transform="translate(-139.129 -363.524)" fill="#fff"/>
    <path id="Path_2191" data-name="Path 2191" d="M121.545,27.993c.186-.1.366-.209.56-.289a.248.248,0,0,0,.171-.273,4.677,4.677,0,0,1,.071-.91,2.432,2.432,0,0,1,4.769.211,5.834,5.834,0,0,1,.031.765.166.166,0,0,0,.114.173,6.029,6.029,0,0,1,3.48,4.627,6.152,6.152,0,0,1,.071,1c.009,1.023.005,2.047,0,3.07a.365.365,0,0,0,.112.278c.508.53,1.011,1.065,1.517,1.6a.613.613,0,0,1,.156.687.292.292,0,0,1-.032.058.045.045,0,0,1-.017.013Zm4.368-.9a1.2,1.2,0,1,0-2.407,0Z" transform="translate(-114.937 -24.66)" fill="#fff"/>
  </g>
</svg>
